<svg xmlns="http://www.w3.org/2000/svg" viewBox="0 0 500 500" enable-background="new 0 0 500 500"><path fill="#fff" d="M250 5C114.7 5 5 114.7 5 250s109.7 245 245 245 245-109.7 245-245S385.3 5 250 5zm66.8 334.9c-2.1 2.1-.4 13.9-3.8 19.7-3.8 5.9-9.7 7.6-16.4 9.7-6.7 2.1.8 3.8-.4 6.7-1.3 2.5-5 4.6-7.1 12.2-2.1 8-8 3.8-8.8 7.1-.4 3.4-5 6.3-10.1 6.7-4.6 0-1.3 2.9-4.6 5.9-2.9 2.9-5 2.5-5.5 6.7-.4 4.2-2.5 4.2-4.6 7.1s2.5 4.6.4 8.4c-2.1 4.2.4 2.9-3.8 5.9-4.2 2.9.4 8.8 3.4 10.1 2.9 1.7 7.6 2.9 4.6 2.5-37.4 2.5-19.3-31.1-20.6-38.7-1.3-7.6 5.9-29 7.1-38.2 1.3-8.8 9.7-16.8-3.4-22.3-13-5.5-6.3-3.4-14.7-18.5-8.8-15.1-2.1-20.6 1.3-23.5 2.9-2.9 2.1-2.5 1.7-8s-1.7-3.4-2.9-5.5c-1.3-2.1-4.6-.4-8.8-.8-4.2-.8-3.4-.8-7.6-6.7-4.6-5.5-5.9-.4-13-6.3-7.6-5.9-4.6-1.3-10.5-2.9s-18.1-3.4-18.9-9.2c-.4-5.5-3.4-8.8-3.4-8.8-2.9-5.9-12.2-16.4-23.5-21.4s-18.1-23.1-15.5-31.1c2.9-8-1.7-6.3-5.5-14.3-3.8-7.6-8.8-14.3-24.8-28.2-16-13.4-41.2.8-53.4 0 7.1-18.1 24.4-42 24.4-42 13.9-.4 24.8 3.8 36.6 5 11.8 1.3 16.4-6.3 22.3-13 5.9-7.1 10.1-13 17.2-16.8 6.7-3.8 14.3-4.6 30.7-7.6 16.4-2.9 8.8-7.1 19.3-14.3 10.5-6.7 35.3-11.8 59.2-11.3 23.9.8-4.2 12.6-9.7 15.5-5.5 2.5-8.4 8.8-12.6 13.9-4.2 5-3.8 7.1-1.3 13 2.1 5.9 18.1 12.2 21.4 14.7s.8 5.9 5.9 10.5c5 4.6 5 8-.4 6.7s-2.9 3.4.4 7.1c2.9 3.4 4.6 8-1.3 8.4-6.3.4-6.3-6.3-13.9-7.6-7.6-1.3-5.5-5.5 0-11.3 5.5-5.9-10.1-3.4-16.4-4.6-6.3-1.3-3.4 5.5-4.2 10.9-.8 5.5 1.7 10.5-3.8 10.5-6.3.4-6.7-3.4-11.8-5-4.6-2.1-5 4.6-10.5 10.5s1.7 10.5 5.9 12.2c4.2 1.3 7.1 6.7 13 6.7s4.6 2.5 9.7 10.9 2.9-6.7 6.3-9.2c3.4-2.1 4.6-4.6 2.5-10.9-2.1-6.3-3.4-8.8 1.7-13.9 5-4.6 10.5.8 14.3 4.2 3.8 3.4.8 10.1 5.5 8.4 4.6-1.7 7.6-5.9 8.8-2.1.8 3.8 4.6 4.2 8 8.4 3.4 4.2 6.7 6.7 7.6 11.3 1.3 4.6 3.8 7.1 6.3 12.2 2.9 4.6-5 3.4-10.1 3.8-5.5.4 0-5.9-2.5-8.4-2.9-2.9-4.6 2.1-11.3 7.1-6.3 5 8.8 6.3 3.8 8.8-5 2.5-7.6 1.3-14.3 3.4-6.7 2.1-4.2 6.3-8 7.1-4.2 1.3-4.6 5-5.9 9.2-1.3 4.2-5 7.1-9.7 10.1s-1.3 12.2-.4 16c1.3 3.8-1.7 5-4.2.4s-2.9-5.9-7.6-9.2-11.8 1.3-21.4 2.9c-9.7 2.1-8 13.9-5 19.7 2.9 5.9 10.1 5.5 13 2.5 3.4-2.5 6.7-4.6 9.2-4.6 2.5-.4-.8 6.3-2.9 10.1-2.1 3.8 4.2 3.4 8.8 3.4 4.6-.4 2.1 6.7 1.7 9.7-.4 2.9 2.1 3.8 3.8 5.5 2.1 1.7 5.5-1.3 8.8.4 3.4 1.3 2.9-2.5 6.7-4.6 3.8-2.1 5.5-1.3 12.6-.4 7.1 1.3 5.9 1.3 11.3 1.3 5 0 8 2.1 10.9 5.9 3.4 3.8 2.1 6.3 9.7 5.9 7.6 0 9.7 5 10.1 8 0 2.9 7.1 5.5 10.5 7.1 3.4 1.3 7.1 3.4 12.2 3.4 5 0 8.4 2.9 11.8 8.4 3 3.4-7.5 9.3-9.6 11.4zM255 271.4c-2.5-.8-2.9-2.1-5-.8s-5.5 3.4-7.1.4c-1.7-2.9-3.4-2.5-5.5-2.5s-5.5-1.7-7.6-1.7-2.1-1.7-3.8-3.4c-1.7-1.7-6.3-2.5-8.8-1.7-2.5.8-4.2 1.7-1.7-.4 2.5-1.7 7.1-2.5 10.9-.8 3.8 1.3 4.6 2.9 7.6 3.8 2.9 1.3 3.8 1.7 5.5 2.1 1.3.4 5.9-1.7 8 .8s2.9 2.1 4.2 2.5c1.3 0 3.4-.4 4.6 0 .8.9 1.7 2.6-1.3 1.7zm76.1-137.8c-5.5 3.4-7.6 5.5-13.4 8-5.5 2.1-7.6 6.3-10.9 16.4-3.4 10.1-12.2-8-17.2-12.6s-1.7-11.8-2.9-18.5c-1.7-6.7-7.6-4.6-5.9-15.5 1.7-11.3-8-15.1-18.9-15.1-10.9 0-9.7-4.6-18.1-7.1-8-2.5 3.8-6.3 13.4-8 9.7-1.3 1.3-4.2 8.8-7.6 0 0 10.5-6.3 19.3-8 6.7-1.3 10.5-.4 21.8-2.9s12.2-1.7 21-2.5 10.5 0 22.3 4.6 7.1 3.8 19.3 5.9c12.6 2.1-2.9 7.1-7.6 10.9-4.6 4.2-2.9 5.5-2.5 10.5.4 5 2.5 8.8-.4 12.6-2.5 3.8-4.6 3.8-5.5 10.9-.8 7.1 1.3 10.1-2.1 11.8-2.4 1.2-15 2.9-20.5 6.2zm23.1 5.5c-2.9-4.6 3.8-1.3 13.4-1.3 8 0 2.1 5.5-2.9 7.6-5 2.1-7.6-1.7-10.5-6.3zm81.5 220.6c-4.2-6.3-2.9-16-.8-23.5 2.5-7.6-4.2-13.9-8.8-18.5-4.2-4.6-3.8-8.4-4.6-14.7s-7.6-5-15.1-2.9c-7.1 2.1-17.6.8-27.3-4.2s-7.1-3.8-11.8-22.3c-4.6-18.1 10.9-25.6 14.3-31.9 3.4-5.9 8-10.1 7.1-13.4-1.3-2.9-5-2.9-5.5-9.2-.4-6.7 2.9-9.7 10.1-10.1 7.1-.8 8.4-5.9 3.8-9.2-4.6-3.8 0-3.8 2.5-7.1 2.9-3.4-2.9-1.7-6.3-4.2s-.4-3.4 2.9-6.3c3.8-2.9 0-5.5-2.1-5.5-2.1-.4-2.1 7.1-8 8.4-5.5 1.3-5-2.5-2.9-6.3s4.6-3.4 5-6.7c.4-3.8-2.9-4.6 4.2-5.9 7.1-1.7 4.2 2.1 4.6 5.9s5.5 7.1 9.2 14.3c3.4 7.1.4 5.5 4.2 2.1 3.8-3.8 6.7-3.4 9.2-6.7s5.5-5.5 7.1-13c2.1-7.6-8-.4-10.9-4.2-2.5-3.8 2.5-6.7 3.4-11.3.8-4.6 3.8-3.4 9.2-8.8 5.5-5.5 4.2-11.3 6.3-8.4 2.5 2.9 8.4 15.1 8.4 16 0 .8-1.3 2.1-1.7 5.5 0 2.9 2.1 1.7 3.4 2.9.8 1.3.8 2.1 0 2.5-1.3.8-2.5 2.5-3.8 3.4-1.3 1.3-.4 3.4-1.3 5.9-.4 2.1-2.1 1.3-5.5 2.5-3.4 1.3-3.8 1.7-4.6 4.6-.4 3.4 2.5.4 5.5.4 2.9-.4 2.5-.8 6.7-1.3 3.8-.4 5.5-.8 8.4-2.5 2.5-1.7-.4-5 2.5-7.6 11.8 24.8 16 59.2 16 59.2s-2.9-.4-5.9-2.5c-2.9-2.1-.4-3.4-.8-6.7-.4-2.9-4.2-.4-6.3.4-2.1.8 1.3 2.1 2.1 5s.4 3.4-1.7 5.5c-2.1 2.5-1.7-.8-3.4-3.8-1.7-2.9-1.3-2.9-4.2-5.5-2.9-2.5-.4-1.7-1.3-5-.8-3.4-3.8-2.9-7.6-5s-3.8-2.1-6.3-5c-2.9-2.9-1.3 2.1-1.3 2.9 0 .8 1.7 1.7 3.8 5.5 2.1 3.8 4.2 2.5 7.1 3.8 2.5 1.3.8 2.1.8 2.1s-1.7-1.3-2.5.4c-.8 1.3.4 1.3.4 1.7 0 .4-.8 2.1-1.7 2.9-1.3.8-.4 2.1-1.7 3.8-1.3 1.7-1.7-.4-4.2-1.7-2.1-1.3-.8-1.7.4-1.7 1.3 0 2.9-.4 4.2-.8.8 0 0-1.7-.8-4.2s-.8-1.3-3.8-2.9c-2.5-2.1-3.8-2.1-5.9-5.9-2.5-3.8-5 .8-11.8.8-6.7 0-2.9.8-5.9 3.4-2.9 2.1-5.5 2.5-6.7 4.6-1.3 2.5-2.1 6.3-7.1 8.4-4.6 2.1 3.8 2.5 10.5.4s13.4-1.3 18.9 0c5.5 1.7 4.2 5 5.9 8 1.7 2.9 9.2 5.9 13.9 5.5 4.6 0 3.4-4.6 7.6-4.6 4.2 0 7.1 5.5 15.1 5 5 57.1-15.5 99.6-23.1 113.4-7.2 12.7-5.5 10.2-9.7 3.9z"/></svg>