<svg xmlns="http://www.w3.org/2000/svg" viewBox="0 0 500 500" enable-background="new 0 0 500 500"><g fill="#fff"><path d="M245.8 321.5l-129.4-50.4v55.5c0 35.3 59.7 63.4 133.6 63.4 73.9 0 133.6-28.6 133.6-63.4v-55.5l-129.4 50.4c-2.1.9-5.9.9-8.4 0zM495.4 204.7l-241.2-94.1c-2.1-.8-5.9-.8-8.4 0L4.6 204.7c-2.1.8-2.1 2.5 0 3.4l241.2 94.1c2.1.8 5.9.8 8.4 0l241.2-94.1c2.1-.9 2.1-2.5 0-3.4zM470.2 238.8c-1.3-4.6-3.4-4.6-4.6 0L446.2 314c-1.3 4.6 1.7 8.4 6.7 8.4h30.3c5 0 8-3.8 6.7-8.4l-19.7-75.2z"/></g></svg>